<svg xmlns="http://www.w3.org/2000/svg" xmlns:xlink="http://www.w3.org/1999/xlink" width="1169.391" height="85" viewBox="0 0 1169.391 85">
  <defs>
    <clipPath id="clip-path">
      <rect id="Rechteck_2476" data-name="Rechteck 2476" width="459.716" height="85" fill="none"/>
    </clipPath>
    <clipPath id="clip-path-2">
      <rect id="Rechteck_2465" data-name="Rechteck 2465" width="168.391" height="30" fill="#696969"/>
    </clipPath>
    <clipPath id="clip-path-3">
      <rect id="Rechteck_2475" data-name="Rechteck 2475" width="179.585" height="30" transform="translate(0 0)" fill="#696969"/>
    </clipPath>
  </defs>
  <g id="Gruppe_5873" data-name="Gruppe 5873" transform="translate(-381 -40)">
    <text id="Präsentiert_von" data-name="Präsentiert von" transform="translate(1155 66)" fill="#555" font-size="18" font-family="Gudea"><tspan x="0" y="0">Präsentiert von</tspan></text>
    <g id="Gruppe_5727" data-name="Gruppe 5727" transform="translate(374 40)">
      <g id="Gruppe_5727-2" data-name="Gruppe 5727" transform="translate(7)" clip-path="url(#clip-path)">
        <path id="Pfad_23756" data-name="Pfad 23756" d="M392.992,51.037a15.967,15.967,0,0,0-1.946-2.966,7.416,7.416,0,0,0-3.489-2.253,13.684,13.684,0,0,0,7-3.712,12.464,12.464,0,0,0,3.286-8.868q0-6-3.892-9.186T382.4,20.862h-6.188l-14.227.319v4.593l4.721,1.288V59.847l-4.721,1.334v4.593h19.075V61.181l-5.231-1.4V47.529h1.786a9.28,9.28,0,0,1,3.509.415,4.307,4.307,0,0,1,2.041,1.786,36.56,36.56,0,0,1,1.978,3.732l5.742,12.313h10.463V61.181l-3.717-1.212Zm-13.4-9.824h-3.764V27.369h5.423q3.7,0,5.487,1.722a6.338,6.338,0,0,1,1.786,4.785,6.716,6.716,0,0,1-2.233,5.486q-2.234,1.851-6.7,1.85" transform="translate(-268.899 -15.497)" fill="#4d674e"/>
        <path id="Pfad_23757" data-name="Pfad 23757" d="M541.855,60.059a17.582,17.582,0,0,0-9.123,2.233,14.673,14.673,0,0,0-5.773,6.348,22.265,22.265,0,0,0-2.01,9.856q0,8.23,4.115,12.7t11.643,4.466a17.931,17.931,0,0,0,9.187-2.233,14.759,14.759,0,0,0,5.869-6.348A21.974,21.974,0,0,0,557.8,77.22q0-8.23-4.21-12.7t-11.738-4.466m5.869,24.051A7.862,7.862,0,0,1,545.3,88a6.433,6.433,0,0,1-4.147,1.276,5.815,5.815,0,0,1-5.231-2.647q-1.722-2.647-1.722-8.581t1.786-8.772a6.624,6.624,0,0,1,10.781-.128q1.786,2.712,1.787,8.517a21.594,21.594,0,0,1-.829,6.443" transform="translate(-389.954 -44.614)" fill="#4d674e"/>
        <path id="Pfad_23758" data-name="Pfad 23758" d="M692.044,76.486a22.551,22.551,0,0,0-4.274-1.818q-2.265-.7-4.274-1.34A12.1,12.1,0,0,1,680.21,71.8a2.751,2.751,0,0,1-1.276-2.36,2.913,2.913,0,0,1,1.435-2.584,6.922,6.922,0,0,1,3.8-.925,18.729,18.729,0,0,1,4.3.576l.8,3.954h5.678l.319-8.549a50.527,50.527,0,0,0-6-1.372,34.569,34.569,0,0,0-5.55-.478,20.424,20.424,0,0,0-6.794,1.084,10.64,10.64,0,0,0-4.944,3.413,9.4,9.4,0,0,0-1.85,6.029,8.81,8.81,0,0,0,1.276,4.976,9.645,9.645,0,0,0,3.285,3.063,21.82,21.82,0,0,0,4.211,1.85q2.2.7,4.211,1.34a12.159,12.159,0,0,1,3.285,1.531,2.811,2.811,0,0,1,1.276,2.424,2.876,2.876,0,0,1-.925,2.2,6.022,6.022,0,0,1-2.36,1.308,10.355,10.355,0,0,1-3.094.447,18.756,18.756,0,0,1-2.679-.223,20.638,20.638,0,0,1-2.154-.425l-.589-4.71h-5.614L669.875,94q3,.765,5.837,1.212a34.823,34.823,0,0,0,5.391.446,23.041,23.041,0,0,0,7.911-1.276,12.292,12.292,0,0,0,5.55-3.828,9.789,9.789,0,0,0,2.041-6.316,8.262,8.262,0,0,0-1.276-4.785,9.6,9.6,0,0,0-3.286-2.967" transform="translate(-497.611 -44.614)" fill="#4d674e"/>
        <path id="Pfad_23759" data-name="Pfad 23759" d="M813.975,76.486a22.552,22.552,0,0,0-4.274-1.818q-2.265-.7-4.274-1.34a12.1,12.1,0,0,1-3.285-1.531,2.751,2.751,0,0,1-1.276-2.36,2.913,2.913,0,0,1,1.435-2.584,6.923,6.923,0,0,1,3.8-.925,18.728,18.728,0,0,1,4.3.576l.8,3.954h5.678l.319-8.549a50.52,50.52,0,0,0-6-1.372,34.569,34.569,0,0,0-5.55-.478,20.425,20.425,0,0,0-6.794,1.084,10.64,10.64,0,0,0-4.944,3.413,9.4,9.4,0,0,0-1.85,6.029,8.81,8.81,0,0,0,1.276,4.976,9.645,9.645,0,0,0,3.285,3.063,21.82,21.82,0,0,0,4.211,1.85q2.2.7,4.21,1.34a12.157,12.157,0,0,1,3.286,1.531,2.811,2.811,0,0,1,1.276,2.424,2.876,2.876,0,0,1-.925,2.2,6.021,6.021,0,0,1-2.36,1.308,10.355,10.355,0,0,1-3.094.447,18.756,18.756,0,0,1-2.679-.223,20.643,20.643,0,0,1-2.154-.425l-.589-4.71h-5.614L791.806,94q3,.765,5.837,1.212a34.823,34.823,0,0,0,5.391.446,23.041,23.041,0,0,0,7.911-1.276,12.293,12.293,0,0,0,5.55-3.828,9.789,9.789,0,0,0,2.041-6.316,8.263,8.263,0,0,0-1.276-4.785,9.6,9.6,0,0,0-3.286-2.967" transform="translate(-588.186 -44.614)" fill="#4d674e"/>
        <path id="Pfad_23760" data-name="Pfad 23760" d="M949.957,74.467l-4.017-3.338a21.55,21.55,0,0,0,2.829-10.41.8.8,0,0,0-.905-.905h-5.488a.8.8,0,0,0-.905.905,18.081,18.081,0,0,1-1.188,5.6l-6.563-5.545q8.656-3.677,8.656-10.862a8.234,8.234,0,0,0-3.366-6.987,14.02,14.02,0,0,0-8.628-2.518,14.381,14.381,0,0,0-8.854,2.6,8.7,8.7,0,0,0-3.479,7.411,14,14,0,0,0,3.451,8.826q-8.713,3.564-8.713,11.089a9.389,9.389,0,0,0,3.734,8.033q3.734,2.773,10.183,2.772a22.733,22.733,0,0,0,14.257-4.469l4.073,3.507a.743.743,0,0,0,1.244-.113l3.734-4.357q.622-.735-.057-1.245M926.733,48.16a5.9,5.9,0,0,1,3.536-.962,5.52,5.52,0,0,1,3.451.962,3.116,3.116,0,0,1,1.244,2.6,4.97,4.97,0,0,1-1.527,3.394,10.889,10.889,0,0,1-4.3,2.659q-3.734-3.677-3.734-6.054a3.046,3.046,0,0,1,1.329-2.6m.651,26.194a8.568,8.568,0,0,1-5.149-1.3,4.2,4.2,0,0,1-1.754-3.564q0-4.13,5.2-5.884l9.9,8.486a14.62,14.62,0,0,1-8.2,2.263" transform="translate(-678.056 -30.017)" fill="#ded440"/>
        <path id="Pfad_23761" data-name="Pfad 23761" d="M1106.3,51.037a15.94,15.94,0,0,0-1.946-2.966,7.413,7.413,0,0,0-3.488-2.253,13.683,13.683,0,0,0,7-3.712,12.464,12.464,0,0,0,3.286-8.868q0-6-3.891-9.186t-11.547-3.19h-6.188l-14.227.319v4.593l4.721,1.288V59.847l-4.721,1.334v4.593h19.075V61.181l-5.231-1.4V47.529h1.786a9.28,9.28,0,0,1,3.509.415,4.306,4.306,0,0,1,2.041,1.786,36.6,36.6,0,0,1,1.978,3.732l5.742,12.313h10.463V61.181l-3.718-1.212Zm-13.4-9.824h-3.764V27.369h5.423q3.7,0,5.486,1.722a6.338,6.338,0,0,1,1.786,4.785,6.716,6.716,0,0,1-2.233,5.486q-2.234,1.851-6.7,1.85" transform="translate(-798.776 -15.497)" fill="#4d674e"/>
        <path id="Pfad_23762" data-name="Pfad 23762" d="M1263.017,62.037a14.95,14.95,0,0,0-8.1-1.978,17.061,17.061,0,0,0-8.868,2.233,15.074,15.074,0,0,0-5.837,6.348,21.678,21.678,0,0,0-2.074,9.856,20.722,20.722,0,0,0,1.946,9.41,13.245,13.245,0,0,0,5.454,5.806,16.565,16.565,0,0,0,8.166,1.946,24.38,24.38,0,0,0,7.5-1.244,28.984,28.984,0,0,0,7.56-3.8l-3-4.785a26.372,26.372,0,0,1-5.263,2.393,15.6,15.6,0,0,1-4.689.8,7.589,7.589,0,0,1-4.944-1.531,8.491,8.491,0,0,1-2.711-4.21,18.464,18.464,0,0,1-.719-3.7h21.261q.191-1.211.287-2.3t.1-2.169a19.3,19.3,0,0,0-1.467-7.687,11.721,11.721,0,0,0-4.593-5.391m-12.823,5.9a5.639,5.639,0,0,1,4.019-1.435,5.019,5.019,0,0,1,3.413,1.085,6.055,6.055,0,0,1,1.786,3.03,14.548,14.548,0,0,1,.48,3.668H1247.5a17.818,17.818,0,0,1,.491-2.488,8.114,8.114,0,0,1,2.2-3.86" transform="translate(-919.739 -44.614)" fill="#4d674e"/>
        <path id="Pfad_23763" data-name="Pfad 23763" d="M1387.19,62.043l-13.206.446v4.594l4.274,1.181V90.551l-4.274,1.221v4.593h17.48V91.772l-4.274-1.221Z" transform="translate(-1020.652 -46.088)" fill="#4d674e"/>
        <path id="Pfad_23764" data-name="Pfad 23764" d="M1391.868,12.471a5.472,5.472,0,0,0,3.732-1.308,4.929,4.929,0,0,0,1.5-3.923,4.989,4.989,0,0,0-1.467-3.923,5.36,5.36,0,0,0-3.7-1.308,5.569,5.569,0,0,0-3.8,1.308,5.012,5.012,0,0,0-1.5,3.987,4.982,4.982,0,0,0,1.435,3.828,5.34,5.34,0,0,0,3.8,1.34" transform="translate(-1030.051 -1.492)" fill="#4d674e"/>
        <path id="Pfad_23765" data-name="Pfad 23765" d="M1464.245,64.779a8.4,8.4,0,0,1-2.265.351,3.112,3.112,0,0,1-2.679-1.212,6.779,6.779,0,0,1-.893-3.955V42.8h8.612l.128-5.933h-8.74V27.809l-9,1.595v7.445l-4.976,1.168V42.8h4.976V61.174q0,5.232,2.265,7.879t6.667,2.647a21.4,21.4,0,0,0,10.271-2.934l-1.659-4.912q-1.469.575-2.711.925" transform="translate(-1072.987 -20.658)" fill="#4d674e"/>
        <path id="Pfad_23766" data-name="Pfad 23766" d="M1570.778,62.037a14.949,14.949,0,0,0-8.1-1.978,17.061,17.061,0,0,0-8.868,2.233,15.075,15.075,0,0,0-5.837,6.348A21.68,21.68,0,0,0,1545.9,78.5a20.72,20.72,0,0,0,1.946,9.41,13.243,13.243,0,0,0,5.455,5.806,16.564,16.564,0,0,0,8.166,1.946,24.382,24.382,0,0,0,7.5-1.244,28.983,28.983,0,0,0,7.56-3.8l-3-4.785a26.371,26.371,0,0,1-5.263,2.393,15.6,15.6,0,0,1-4.689.8,7.589,7.589,0,0,1-4.944-1.531,8.492,8.492,0,0,1-2.711-4.21,18.473,18.473,0,0,1-.719-3.7h21.261q.191-1.211.287-2.3t.1-2.169a19.3,19.3,0,0,0-1.467-7.687,11.719,11.719,0,0,0-4.593-5.391m-12.823,5.9a5.639,5.639,0,0,1,4.019-1.435,5.019,5.019,0,0,1,3.413,1.085,6.057,6.057,0,0,1,1.786,3.03,14.559,14.559,0,0,1,.48,3.668h-12.391a17.835,17.835,0,0,1,.491-2.488,8.115,8.115,0,0,1,2.2-3.86" transform="translate(-1148.357 -44.614)" fill="#4d674e"/>
        <path id="Pfad_23767" data-name="Pfad 23767" d="M1704.648,60.059a11.76,11.76,0,0,0-6,1.627,24.7,24.7,0,0,0-4.754,3.7l-.924-4.879-11.228.51v4.593l4.274,1.287V89.085l-4.274,1.214v4.593h18.5V90.3l-5.3-1.23V70.541a11.829,11.829,0,0,1,2.647-2.253,7.36,7.36,0,0,1,3.924-1.212,5.331,5.331,0,0,1,.8.064c.063.01.124.025.186.037l.739,5.322h5.168l.574-11.8a16.261,16.261,0,0,0-4.338-.638" transform="translate(-1249.27 -44.614)" fill="#4d674e"/>
        <path id="Pfad_23768" data-name="Pfad 23768" d="M372.677,246.535a5.842,5.842,0,0,0-2.138-1.346,7.817,7.817,0,0,0-2.681-.445h-2.388l-4.081.109v.934l1.867.355v12.428l-1.867.392v.933h6.121a7.441,7.441,0,0,0,3.668-.89,6.288,6.288,0,0,0,2.529-2.626,9.079,9.079,0,0,0,.922-4.3,9.241,9.241,0,0,0-.521-3.267,6.261,6.261,0,0,0-1.433-2.279m-.38,8.7a4.965,4.965,0,0,1-1.161,1.953,4.479,4.479,0,0,1-1.65,1.053,5.631,5.631,0,0,1-1.91.326h-2.54v-12.5h2.778a5.315,5.315,0,0,1,1.823.315,4.185,4.185,0,0,1,1.563,1.02,4.988,4.988,0,0,1,1.107,1.888,9.037,9.037,0,0,1,.412,2.941,9.289,9.289,0,0,1-.423,3.006" transform="translate(-268.455 -181.806)" fill="#4d674e"/>
        <path id="Pfad_23769" data-name="Pfad 23769" d="M428.816,258.974a4.525,4.525,0,0,0-2.507-.641,5.159,5.159,0,0,0-2.8.749,4.934,4.934,0,0,0-1.845,2.116,7.51,7.51,0,0,0-.651,3.256,7.036,7.036,0,0,0,.63,3.126,4.485,4.485,0,0,0,1.747,1.943,4.949,4.949,0,0,0,2.572.662,7.293,7.293,0,0,0,2.344-.412,10.143,10.143,0,0,0,2.431-1.237l-.629-.977a8.846,8.846,0,0,1-1.975.966,5.646,5.646,0,0,1-1.758.315,3.26,3.26,0,0,1-1.943-.564,3.483,3.483,0,0,1-1.2-1.6,6.493,6.493,0,0,1-.406-2.29h7.873q.044-.347.065-.586t.022-.478a6.452,6.452,0,0,0-.488-2.583,3.9,3.9,0,0,0-1.476-1.769m-4.5,1.27a2.965,2.965,0,0,1,1.867-.586,2.613,2.613,0,0,1,1.671.5,2.67,2.67,0,0,1,.89,1.324,5.491,5.491,0,0,1,.237,1.671h-6.093a6.093,6.093,0,0,1,.3-1.3,3.453,3.453,0,0,1,1.129-1.606" transform="translate(-312.746 -191.9)" fill="#4d674e"/>
        <path id="Pfad_23770" data-name="Pfad 23770" d="M470.284,258.9a9.229,9.229,0,0,0-1.7,1.38l-.206-1.836-3.039.152v.933l1.693.362v8.8l-1.693.365v.933h5.535v-.933l-2.105-.367v-7.261a7.42,7.42,0,0,1,1.378-1.163,3.081,3.081,0,0,1,1.682-.521,2.814,2.814,0,0,1,.347.022c.061.008.114.023.172.034l.219,1.919h1.085l.13-3.169a5.3,5.3,0,0,0-1.454-.217,3.87,3.87,0,0,0-2.04.564" transform="translate(-345.67 -191.901)" fill="#4d674e"/>
        <path id="Pfad_23771" data-name="Pfad 23771" d="M532.209,245.786l1.888.318v11.272l-7.966-12.632-3.994.109v.933l1.867.327v12.46l-1.867.388v.934h5.253v-.934l-1.867-.388V247.047l8.075,12.847h2V246.112l1.889-.434v-.933l-5.275.109Z" transform="translate(-387.865 -181.806)" fill="#4d674e"/>
        <path id="Pfad_23772" data-name="Pfad 23772" d="M594.189,258.974a4.525,4.525,0,0,0-2.507-.641,5.159,5.159,0,0,0-2.8.749,4.934,4.934,0,0,0-1.845,2.116,7.511,7.511,0,0,0-.651,3.256,7.036,7.036,0,0,0,.63,3.126,4.485,4.485,0,0,0,1.747,1.943,4.949,4.949,0,0,0,2.572.662,7.293,7.293,0,0,0,2.344-.412,10.144,10.144,0,0,0,2.431-1.237l-.629-.977a8.847,8.847,0,0,1-1.976.966,5.645,5.645,0,0,1-1.758.315,3.26,3.26,0,0,1-1.943-.564,3.483,3.483,0,0,1-1.2-1.6,6.492,6.492,0,0,1-.406-2.29h7.873q.044-.347.065-.586c.014-.159.022-.318.022-.478a6.453,6.453,0,0,0-.488-2.583,3.9,3.9,0,0,0-1.476-1.769m-4.5,1.27a2.965,2.965,0,0,1,1.867-.586,2.614,2.614,0,0,1,1.671.5,2.671,2.671,0,0,1,.89,1.324,5.494,5.494,0,0,1,.237,1.671h-6.093a6.1,6.1,0,0,1,.3-1.3,3.455,3.455,0,0,1,1.129-1.606" transform="translate(-435.592 -191.9)" fill="#4d674e"/>
        <path id="Pfad_23773" data-name="Pfad 23773" d="M640.5,259.841l1.639.245-2.344,8.732-2.66-10.062-1.888.13-2.761,9.87-2.23-8.74,1.735-.305v-.955l-4.688.152v.933l1.3.245,2.783,10.261h1.91l2.817-9.634,2.653,9.634h1.91l2.917-10.327,1.272-.309v-.955l-4.363.152Z" transform="translate(-465.989 -192.214)" fill="#4d674e"/>
        <path id="Pfad_23774" data-name="Pfad 23774" d="M706.131,264.107a10.057,10.057,0,0,0-1.52-.586q-.8-.239-1.519-.489a3.6,3.6,0,0,1-1.172-.64,1.352,1.352,0,0,1-.456-1.085,1.435,1.435,0,0,1,.705-1.291,3.26,3.26,0,0,1,1.769-.445,7.526,7.526,0,0,1,1.911.271l.281,1.553h1.107l.109-2.453a12.919,12.919,0,0,0-1.823-.456,9.769,9.769,0,0,0-1.628-.152,6,6,0,0,0-2.029.336,3.371,3.371,0,0,0-1.519,1.042,2.774,2.774,0,0,0-.575,1.812,2.553,2.553,0,0,0,.456,1.606,3.364,3.364,0,0,0,1.172.944,8.789,8.789,0,0,0,1.508.586q.792.228,1.508.489a3.4,3.4,0,0,1,1.161.673,1.464,1.464,0,0,1,.445,1.129,1.581,1.581,0,0,1-.412,1.118,2.574,2.574,0,0,1-1.074.673,4.414,4.414,0,0,1-1.443.228,7.4,7.4,0,0,1-1.085-.087c-.325-.048-.625-.109-.91-.177l-.2-1.929h-1.107l-.152,2.908a16.1,16.1,0,0,0,1.736.369,10.836,10.836,0,0,0,1.65.13,6.816,6.816,0,0,0,2.4-.4,3.868,3.868,0,0,0,1.7-1.183,2.98,2.98,0,0,0,.629-1.932,2.613,2.613,0,0,0-.456-1.606,3.173,3.173,0,0,0-1.172-.955" transform="translate(-519.722 -191.9)" fill="#4d674e"/>
        <path id="Pfad_23775" data-name="Pfad 23775" d="M739.445,238.5l-3.451.152v.933l1.715.355v14.009l-1.715.374v.934h5.144v-.934l-1.693-.37Z" transform="translate(-546.726 -177.166)" fill="#4d674e"/>
        <path id="Pfad_23776" data-name="Pfad 23776" d="M767.809,258.974a4.527,4.527,0,0,0-2.507-.641,5.159,5.159,0,0,0-2.8.749,4.934,4.934,0,0,0-1.845,2.116,7.51,7.51,0,0,0-.651,3.256,7.034,7.034,0,0,0,.629,3.126,4.486,4.486,0,0,0,1.747,1.943,4.949,4.949,0,0,0,2.572.662,7.294,7.294,0,0,0,2.344-.412,10.144,10.144,0,0,0,2.431-1.237l-.63-.977a8.839,8.839,0,0,1-1.975.966,5.646,5.646,0,0,1-1.758.315,3.259,3.259,0,0,1-1.943-.564,3.483,3.483,0,0,1-1.2-1.6,6.486,6.486,0,0,1-.406-2.29h7.873q.044-.347.065-.586t.022-.478a6.454,6.454,0,0,0-.488-2.583,3.9,3.9,0,0,0-1.476-1.769m-4.5,1.27a2.966,2.966,0,0,1,1.867-.586,2.614,2.614,0,0,1,1.672.5,2.671,2.671,0,0,1,.89,1.324,5.477,5.477,0,0,1,.237,1.671h-6.093a6.108,6.108,0,0,1,.3-1.3,3.453,3.453,0,0,1,1.129-1.606" transform="translate(-564.564 -191.9)" fill="#4d674e"/>
        <path id="Pfad_23777" data-name="Pfad 23777" d="M807.843,261a3.1,3.1,0,0,1-.847.13,1.265,1.265,0,0,1-1.009-.412,2,2,0,0,1-.358-1.324v-7.358h3.1l.065-1.216h-3.169v-2.865l-1.737.282V250.8l-1.953.282v.955h1.953v7.6a3.06,3.06,0,0,0,.651,2.138,2.3,2.3,0,0,0,1.78.705,6.009,6.009,0,0,0,2.865-.847l-.369-1a6.885,6.885,0,0,1-.977.369" transform="translate(-595.713 -184.188)" fill="#4d674e"/>
        <path id="Pfad_23778" data-name="Pfad 23778" d="M839.808,261a3.1,3.1,0,0,1-.847.13,1.265,1.265,0,0,1-1.009-.412,2,2,0,0,1-.358-1.324v-7.358h3.1l.065-1.216h-3.169v-2.865l-1.737.282V250.8l-1.953.282v.955h1.953v7.6a3.06,3.06,0,0,0,.651,2.138,2.3,2.3,0,0,0,1.78.705,6.009,6.009,0,0,0,2.865-.847l-.369-1a6.891,6.891,0,0,1-.977.369" transform="translate(-619.458 -184.188)" fill="#4d674e"/>
        <path id="Pfad_23779" data-name="Pfad 23779" d="M873.282,258.974a4.527,4.527,0,0,0-2.507-.641,5.159,5.159,0,0,0-2.8.749,4.934,4.934,0,0,0-1.845,2.116,7.511,7.511,0,0,0-.651,3.256,7.034,7.034,0,0,0,.629,3.126,4.486,4.486,0,0,0,1.747,1.943,4.949,4.949,0,0,0,2.572.662,7.293,7.293,0,0,0,2.344-.412,10.145,10.145,0,0,0,2.431-1.237l-.63-.977a8.84,8.84,0,0,1-1.975.966,5.646,5.646,0,0,1-1.758.315,3.258,3.258,0,0,1-1.943-.564,3.483,3.483,0,0,1-1.2-1.6,6.488,6.488,0,0,1-.406-2.29h7.873q.044-.347.065-.586t.022-.478a6.455,6.455,0,0,0-.488-2.583,3.9,3.9,0,0,0-1.476-1.769m-4.5,1.27a2.966,2.966,0,0,1,1.867-.586,2.614,2.614,0,0,1,1.672.5,2.671,2.671,0,0,1,.89,1.324,5.479,5.479,0,0,1,.237,1.671H867.35a6.115,6.115,0,0,1,.3-1.3,3.454,3.454,0,0,1,1.129-1.606" transform="translate(-642.913 -191.9)" fill="#4d674e"/>
        <path id="Pfad_23780" data-name="Pfad 23780" d="M914.748,258.9a9.217,9.217,0,0,0-1.7,1.38l-.206-1.836-3.039.152v.933l1.693.362v8.8l-1.693.365v.933h5.535v-.933l-2.105-.367v-7.261a7.415,7.415,0,0,1,1.378-1.163,3.081,3.081,0,0,1,1.682-.521,2.821,2.821,0,0,1,.348.022c.061.008.114.023.172.034l.219,1.919h1.085l.13-3.169a5.3,5.3,0,0,0-1.454-.217,3.869,3.869,0,0,0-2.04.564" transform="translate(-675.836 -191.901)" fill="#4d674e"/>
        <path id="Pfad_23781" data-name="Pfad 23781" d="M972.3,238.174a7,7,0,0,0-1.151-.1,3.934,3.934,0,0,0-2.767.966,3.892,3.892,0,0,0-1.053,3.006v1.535l-1.736.245v.955h1.736v8.859l-1.693.365v.934h5.491v-.934l-2.062-.373v-8.852h3l.043-1.215h-3.039V241.9a2.557,2.557,0,0,1,.64-1.932,2.373,2.373,0,0,1,1.7-.608,4.8,4.8,0,0,1,.89.087,9.334,9.334,0,0,1,.955.239l.282-1.194a8.2,8.2,0,0,0-1.237-.315" transform="translate(-717.28 -176.853)" fill="#4d674e"/>
        <path id="Pfad_23782" data-name="Pfad 23782" d="M1006.311,258.756l-3.451.152v.933l1.715.366v7.27a6.412,6.412,0,0,1-1.715,1.22,4.142,4.142,0,0,1-1.736.434,2.156,2.156,0,0,1-1.628-.63,2.688,2.688,0,0,1-.608-1.932v-7.792l-3.451.13v.933l1.715.366v6.667a3.616,3.616,0,0,0,.933,2.735,3.288,3.288,0,0,0,2.366.89,5.586,5.586,0,0,0,2.246-.521,6.95,6.95,0,0,0,2.043-1.425l.225,1.858,3.039-.13v-.955l-1.693-.32Z" transform="translate(-739.451 -192.215)" fill="#4d674e"/>
        <path id="Pfad_23783" data-name="Pfad 23783" d="M1024.669,242.866a.981.981,0,0,0,.716-.3,1.115,1.115,0,0,0,.3-.825,1.2,1.2,0,0,0-.271-.825.954.954,0,0,0-.749-.3,1,1,0,0,0-.738.3,1.113,1.113,0,0,0-.3.825,1.277,1.277,0,0,0,.293.825.951.951,0,0,0,.749.3" transform="translate(-760.392 -178.734)" fill="#4d674e"/>
        <path id="Pfad_23784" data-name="Pfad 23784" d="M1007.935,242.866a1,1,0,0,0,.738-.3,1.114,1.114,0,0,0,.3-.825,1.165,1.165,0,0,0-.282-.825.987.987,0,0,0-.76-.3.97.97,0,0,0-.727.3,1.138,1.138,0,0,0-.293.825,1.193,1.193,0,0,0,.271.825.952.952,0,0,0,.749.3" transform="translate(-747.978 -178.734)" fill="#4d674e"/>
        <path id="Pfad_23785" data-name="Pfad 23785" d="M1055.145,258.9a9.216,9.216,0,0,0-1.7,1.38l-.206-1.836-3.039.152v.933l1.693.362v8.8l-1.693.365v.933h5.535v-.933l-2.105-.367v-7.261a7.419,7.419,0,0,1,1.378-1.163,3.082,3.082,0,0,1,1.682-.521,2.819,2.819,0,0,1,.347.022c.061.008.115.023.172.034l.219,1.919h1.086l.13-3.169a5.3,5.3,0,0,0-1.454-.217,3.87,3.87,0,0,0-2.04.564" transform="translate(-780.129 -191.901)" fill="#4d674e"/>
        <path id="Pfad_23786" data-name="Pfad 23786" d="M1115.9,245.308a5.954,5.954,0,0,0-2.757-.564h-2.453l-3.69.109v.934l1.867.326v12.461l-1.867.388v.933h6.034v-.933l-2.388-.385V254.1h1.628a7.385,7.385,0,0,0,3.2-.618,4.367,4.367,0,0,0,1.943-1.726,4.954,4.954,0,0,0,.651-2.561,4.789,4.789,0,0,0-.543-2.322,3.785,3.785,0,0,0-1.628-1.563m-.684,6.512a4.17,4.17,0,0,1-2.941.955h-1.628v-6.707h2.236a3.425,3.425,0,0,1,2.507.847,3.118,3.118,0,0,1,.857,2.322,3.351,3.351,0,0,1-1.031,2.583" transform="translate(-822.325 -181.806)" fill="#4d674e"/>
        <path id="Pfad_23787" data-name="Pfad 23787" d="M1160.979,239.965a2.373,2.373,0,0,1,1.7-.608,4.78,4.78,0,0,1,.89.087,9.264,9.264,0,0,1,.955.239l.282-1.194a8.2,8.2,0,0,0-1.237-.315,7,7,0,0,0-1.151-.1,3.933,3.933,0,0,0-2.767.966,3.892,3.892,0,0,0-1.053,3.006v1.534l-1.736.245v.955h1.736v8.859l-1.693.365v.934h5.491v-.934l-2.062-.373v-8.852h3l.043-1.215h-3.039V241.9a2.558,2.558,0,0,1,.64-1.932" transform="translate(-859.368 -176.853)" fill="#4d674e"/>
        <path id="Pfad_23788" data-name="Pfad 23788" d="M1193.037,258.974a4.528,4.528,0,0,0-2.507-.641,5.159,5.159,0,0,0-2.8.749,4.935,4.935,0,0,0-1.845,2.116,7.511,7.511,0,0,0-.651,3.256,7.033,7.033,0,0,0,.629,3.126,4.487,4.487,0,0,0,1.747,1.943,4.95,4.95,0,0,0,2.572.662,7.294,7.294,0,0,0,2.344-.412,10.146,10.146,0,0,0,2.431-1.237l-.63-.977a8.841,8.841,0,0,1-1.975.966,5.647,5.647,0,0,1-1.758.315,3.258,3.258,0,0,1-1.943-.564,3.483,3.483,0,0,1-1.2-1.6,6.485,6.485,0,0,1-.406-2.29h7.873q.044-.347.065-.586t.022-.478a6.455,6.455,0,0,0-.488-2.583,3.9,3.9,0,0,0-1.476-1.769m-4.5,1.27a2.966,2.966,0,0,1,1.867-.586,2.614,2.614,0,0,1,1.672.5,2.671,2.671,0,0,1,.89,1.324,5.485,5.485,0,0,1,.237,1.671H1187.1a6.115,6.115,0,0,1,.3-1.3,3.455,3.455,0,0,1,1.129-1.606" transform="translate(-880.441 -191.9)" fill="#4d674e"/>
        <path id="Pfad_23789" data-name="Pfad 23789" d="M1234.5,258.9a9.221,9.221,0,0,0-1.7,1.38l-.206-1.836-3.039.152v.933l1.693.362v8.8l-1.693.365v.933h5.535v-.933l-2.1-.367v-7.261a7.419,7.419,0,0,1,1.378-1.163,3.081,3.081,0,0,1,1.682-.521,2.824,2.824,0,0,1,.347.022c.061.008.115.023.172.034l.219,1.919h1.085l.13-3.169a5.3,5.3,0,0,0-1.454-.217,3.869,3.869,0,0,0-2.04.564" transform="translate(-913.364 -191.901)" fill="#4d674e"/>
        <path id="Pfad_23790" data-name="Pfad 23790" d="M1276.968,238.5l-3.538.152v.933l1.8.392v3.889c-.312-.073-.621-.136-.922-.178a8.611,8.611,0,0,0-1.183-.087,5.72,5.72,0,0,0-4.233,1.541,6.183,6.183,0,0,0-1.541,4.558,7.81,7.81,0,0,0,.564,3.137,4.415,4.415,0,0,0,1.541,1.953,3.781,3.781,0,0,0,2.171.662,4.614,4.614,0,0,0,1.986-.466,7.362,7.362,0,0,0,1.782-1.237l.226,1.617,3.039-.13v-.955l-1.693-.339Zm-4.732,15.628a2.517,2.517,0,0,1-1.574-.543,3.552,3.552,0,0,1-1.107-1.574,6.789,6.789,0,0,1-.4-2.464,5.32,5.32,0,0,1,1-3.429,3.518,3.518,0,0,1,2.909-1.237,7.58,7.58,0,0,1,2.17.364v7.475a6.273,6.273,0,0,1-1.422,1.006,3.551,3.551,0,0,1-1.574.4" transform="translate(-941.441 -177.167)" fill="#4d674e"/>
        <path id="Pfad_23791" data-name="Pfad 23791" d="M1323.138,258.974a4.527,4.527,0,0,0-2.507-.641,5.16,5.16,0,0,0-2.8.749,4.935,4.935,0,0,0-1.845,2.116,7.51,7.51,0,0,0-.651,3.256,7.036,7.036,0,0,0,.629,3.126,4.488,4.488,0,0,0,1.747,1.943,4.949,4.949,0,0,0,2.572.662,7.293,7.293,0,0,0,2.344-.412,10.146,10.146,0,0,0,2.431-1.237l-.63-.977a8.841,8.841,0,0,1-1.975.966,5.645,5.645,0,0,1-1.758.315,3.258,3.258,0,0,1-1.943-.564,3.483,3.483,0,0,1-1.2-1.6,6.482,6.482,0,0,1-.406-2.29h7.873q.044-.347.065-.586c.014-.159.022-.318.022-.478a6.455,6.455,0,0,0-.488-2.583,3.9,3.9,0,0,0-1.476-1.769m-4.5,1.27a2.966,2.966,0,0,1,1.867-.586,2.614,2.614,0,0,1,1.672.5,2.67,2.67,0,0,1,.89,1.324,5.481,5.481,0,0,1,.237,1.671h-6.093a6.108,6.108,0,0,1,.3-1.3,3.455,3.455,0,0,1,1.129-1.606" transform="translate(-977.085 -191.9)" fill="#4d674e"/>
        <path id="Pfad_23792" data-name="Pfad 23792" d="M1365.8,244.272a3.727,3.727,0,0,0-2.181-.673,4.58,4.58,0,0,0-1.954.456,6.934,6.934,0,0,0-1.65,1.112V238.5l-3.429.152v.933l1.693.36v15.073q.977.217,1.856.326a13.642,13.642,0,0,0,1.66.109,8.007,8.007,0,0,0,2.757-.423,4.654,4.654,0,0,0,2.984-3.115,8.379,8.379,0,0,0,.358-2.54,7.8,7.8,0,0,0-.564-3.147,4.538,4.538,0,0,0-1.53-1.954m-.727,8.7a3.67,3.67,0,0,1-2.952,1.194,9.061,9.061,0,0,1-2.106-.291v-7.531a6.049,6.049,0,0,1,1.422-1.023,3.548,3.548,0,0,1,1.574-.4,2.472,2.472,0,0,1,1.584.553,3.68,3.68,0,0,1,1.1,1.574,6.7,6.7,0,0,1,.4,2.453,5.209,5.209,0,0,1-1.02,3.473" transform="translate(-1007.726 -177.166)" fill="#4d674e"/>
        <path id="Pfad_23793" data-name="Pfad 23793" d="M1415.7,258.974a4.527,4.527,0,0,0-2.507-.641,5.159,5.159,0,0,0-2.8.749,4.933,4.933,0,0,0-1.845,2.116,7.509,7.509,0,0,0-.651,3.256,7.034,7.034,0,0,0,.629,3.126,4.488,4.488,0,0,0,1.747,1.943,4.95,4.95,0,0,0,2.572.662,7.294,7.294,0,0,0,2.344-.412,10.143,10.143,0,0,0,2.431-1.237l-.63-.977a8.833,8.833,0,0,1-1.975.966,5.645,5.645,0,0,1-1.758.315,3.258,3.258,0,0,1-1.943-.564,3.484,3.484,0,0,1-1.2-1.6,6.49,6.49,0,0,1-.406-2.29h7.873q.043-.347.065-.586t.022-.478a6.453,6.453,0,0,0-.488-2.583,3.9,3.9,0,0,0-1.476-1.769m-4.5,1.27a2.965,2.965,0,0,1,1.867-.586,2.614,2.614,0,0,1,1.671.5,2.67,2.67,0,0,1,.89,1.324,5.477,5.477,0,0,1,.237,1.671h-6.093a6.108,6.108,0,0,1,.3-1.3,3.452,3.452,0,0,1,1.129-1.606" transform="translate(-1045.847 -191.9)" fill="#4d674e"/>
        <path id="Pfad_23794" data-name="Pfad 23794" d="M1461.085,269.219a5.224,5.224,0,0,0-3.169-.814h-3.842l.46-2.318a6.026,6.026,0,0,0,1.906.3,5.03,5.03,0,0,0,3.408-1.107,3.782,3.782,0,0,0,1.281-3.017,4.02,4.02,0,0,0-.239-1.433,2.89,2.89,0,0,0-.512-.868l1.684-.326-.022-1.042-3.194.142a5.949,5.949,0,0,0-2.276-.4,5,5,0,0,0-3.44,1.107,3.8,3.8,0,0,0-1.248,3,3.962,3.962,0,0,0,.5,2.029,3.514,3.514,0,0,0,1.291,1.269c-.216.478-.4.876-.542,1.184q-.25.532-.369.847a4.746,4.746,0,0,0-.163.488,1.421,1.421,0,0,0-.043.347.8.8,0,0,0,.369.705,1.584,1.584,0,0,0,.507.21,4.8,4.8,0,0,0-1.376,1.06,2.593,2.593,0,0,0-.651,1.736,2.335,2.335,0,0,0,1.259,2.127,7.7,7.7,0,0,0,3.8.738,7.926,7.926,0,0,0,4.265-.933,3.015,3.015,0,0,0,1.443-2.692,2.741,2.741,0,0,0-1.085-2.333m-6.685-8.943a3.539,3.539,0,0,1,4.254-.033,2.7,2.7,0,0,1,.738,2.062,2.8,2.8,0,0,1-.781,2.116,3.01,3.01,0,0,1-2.171.749,2.828,2.828,0,0,1-2.073-.716,2.764,2.764,0,0,1-.727-2.062,2.793,2.793,0,0,1,.76-2.116m5.144,13.034a6.129,6.129,0,0,1-2.93.543,6.27,6.27,0,0,1-2.767-.467,1.5,1.5,0,0,1-.9-1.4,2.848,2.848,0,0,1,1.575-2.236h3.113a3.836,3.836,0,0,1,2.149.489,1.633,1.633,0,0,1,.716,1.443,1.759,1.759,0,0,1-.955,1.628" transform="translate(-1078.163 -191.9)" fill="#4d674e"/>
        <path id="Pfad_23795" data-name="Pfad 23795" d="M1505.19,258.974a4.528,4.528,0,0,0-2.507-.641,5.159,5.159,0,0,0-2.8.749,4.934,4.934,0,0,0-1.845,2.116,7.51,7.51,0,0,0-.651,3.256,7.029,7.029,0,0,0,.629,3.126,4.485,4.485,0,0,0,1.747,1.943,4.951,4.951,0,0,0,2.572.662,7.293,7.293,0,0,0,2.344-.412,10.143,10.143,0,0,0,2.431-1.237l-.629-.977a8.839,8.839,0,0,1-1.975.966,5.645,5.645,0,0,1-1.758.315,3.258,3.258,0,0,1-1.943-.564,3.483,3.483,0,0,1-1.2-1.6,6.482,6.482,0,0,1-.406-2.29h7.873q.043-.347.065-.586t.022-.478a6.451,6.451,0,0,0-.488-2.583,3.9,3.9,0,0,0-1.476-1.769m-4.5,1.27a2.966,2.966,0,0,1,1.867-.586,2.615,2.615,0,0,1,1.672.5,2.67,2.67,0,0,1,.89,1.324,5.47,5.47,0,0,1,.237,1.671h-6.093a6.115,6.115,0,0,1,.3-1.3,3.454,3.454,0,0,1,1.129-1.606" transform="translate(-1112.321 -191.9)" fill="#4d674e"/>
        <path id="Pfad_23796" data-name="Pfad 23796" d="M1545.137,258.84l-3.43.13v.933l1.693.354v8.8l-1.693.37v.934h5.123v-.934l-1.693-.37Z" transform="translate(-1145.243 -192.277)" fill="#4d674e"/>
        <path id="Pfad_23797" data-name="Pfad 23797" d="M1547.838,242.7a1.214,1.214,0,0,0,.846-.315,1.153,1.153,0,0,0,.347-.9,1.093,1.093,0,0,0-1.172-1.215,1.121,1.121,0,0,0-1.172,1.215,1.2,1.2,0,0,0,.325.89,1.118,1.118,0,0,0,.825.326" transform="translate(-1148.943 -178.483)" fill="#4d674e"/>
        <path id="Pfad_23798" data-name="Pfad 23798" d="M1574.658,264.107a10.061,10.061,0,0,0-1.52-.586q-.8-.239-1.519-.489a3.6,3.6,0,0,1-1.172-.64,1.352,1.352,0,0,1-.456-1.085,1.435,1.435,0,0,1,.705-1.291,3.261,3.261,0,0,1,1.769-.445,7.528,7.528,0,0,1,1.911.271l.281,1.553h1.107l.109-2.453a12.919,12.919,0,0,0-1.823-.456,9.77,9.77,0,0,0-1.628-.152,6,6,0,0,0-2.03.336,3.371,3.371,0,0,0-1.519,1.042,2.774,2.774,0,0,0-.575,1.812,2.552,2.552,0,0,0,.456,1.606,3.362,3.362,0,0,0,1.172.944,8.785,8.785,0,0,0,1.508.586q.792.228,1.509.489a3.4,3.4,0,0,1,1.161.673,1.465,1.465,0,0,1,.445,1.129,1.581,1.581,0,0,1-.412,1.118,2.574,2.574,0,0,1-1.074.673,4.415,4.415,0,0,1-1.443.228,7.4,7.4,0,0,1-1.085-.087c-.325-.048-.625-.109-.91-.177l-.2-1.929h-1.107l-.152,2.908a16.111,16.111,0,0,0,1.736.369,10.834,10.834,0,0,0,1.65.13,6.816,6.816,0,0,0,2.4-.4,3.867,3.867,0,0,0,1.7-1.183,2.98,2.98,0,0,0,.63-1.932,2.613,2.613,0,0,0-.456-1.606,3.173,3.173,0,0,0-1.172-.955" transform="translate(-1164.9 -191.9)" fill="#4d674e"/>
        <path id="Pfad_23799" data-name="Pfad 23799" d="M1610.662,261a3.1,3.1,0,0,1-.846.13,1.265,1.265,0,0,1-1.009-.412,2,2,0,0,1-.358-1.324v-7.358h3.1l.065-1.216h-3.169v-2.865l-1.737.282V250.8l-1.953.282v.955h1.953v7.6a3.06,3.06,0,0,0,.651,2.138,2.3,2.3,0,0,0,1.78.705,6.009,6.009,0,0,0,2.865-.847l-.369-1a6.88,6.88,0,0,1-.977.369" transform="translate(-1192.08 -184.188)" fill="#4d674e"/>
        <path id="Pfad_23800" data-name="Pfad 23800" d="M1644.137,258.974a4.527,4.527,0,0,0-2.507-.641,5.16,5.16,0,0,0-2.8.749,4.933,4.933,0,0,0-1.845,2.116,7.51,7.51,0,0,0-.651,3.256,7.031,7.031,0,0,0,.629,3.126,4.486,4.486,0,0,0,1.747,1.943,4.949,4.949,0,0,0,2.572.662,7.293,7.293,0,0,0,2.344-.412,10.143,10.143,0,0,0,2.431-1.237l-.629-.977a8.839,8.839,0,0,1-1.975.966,5.645,5.645,0,0,1-1.758.315,3.258,3.258,0,0,1-1.943-.564,3.482,3.482,0,0,1-1.2-1.6,6.485,6.485,0,0,1-.406-2.29h7.873q.043-.347.065-.586t.022-.478a6.455,6.455,0,0,0-.488-2.583,3.9,3.9,0,0,0-1.476-1.769m-4.5,1.27a2.966,2.966,0,0,1,1.867-.586,2.614,2.614,0,0,1,1.672.5,2.67,2.67,0,0,1,.89,1.324,5.474,5.474,0,0,1,.237,1.671H1638.2a6.115,6.115,0,0,1,.3-1.3,3.456,3.456,0,0,1,1.129-1.606" transform="translate(-1215.536 -191.9)" fill="#4d674e"/>
        <path id="Pfad_23801" data-name="Pfad 23801" d="M1685.6,258.9a9.217,9.217,0,0,0-1.7,1.38l-.206-1.836-3.039.152v.933l1.693.362v8.8l-1.693.365v.933h5.535v-.933l-2.105-.367v-7.261a7.415,7.415,0,0,1,1.378-1.163,3.082,3.082,0,0,1,1.682-.521,2.819,2.819,0,0,1,.347.022c.061.008.115.023.172.034l.219,1.919h1.086l.13-3.169a5.3,5.3,0,0,0-1.454-.217,3.87,3.87,0,0,0-2.04.564" transform="translate(-1248.459 -191.901)" fill="#4d674e"/>
        <path id="Pfad_23802" data-name="Pfad 23802" d="M1724,261a3.1,3.1,0,0,1-.847.13,1.266,1.266,0,0,1-1.01-.412,2,2,0,0,1-.358-1.324v-7.358h3.1l.065-1.216h-3.169v-2.865l-1.736.282V250.8l-1.953.282v.955h1.953v7.6a3.06,3.06,0,0,0,.651,2.138,2.3,2.3,0,0,0,1.78.705,6.009,6.009,0,0,0,2.865-.847l-.369-1A6.889,6.889,0,0,1,1724,261" transform="translate(-1276.272 -184.188)" fill="#4d674e"/>
        <path id="Pfad_23803" data-name="Pfad 23803" d="M1759.418,263.8q.022-.238.022-.478a6.453,6.453,0,0,0-.488-2.583,3.9,3.9,0,0,0-1.476-1.769,4.527,4.527,0,0,0-2.507-.641,5.16,5.16,0,0,0-2.8.749,4.935,4.935,0,0,0-1.845,2.116,7.51,7.51,0,0,0-.651,3.256,7.031,7.031,0,0,0,.629,3.126,4.487,4.487,0,0,0,1.747,1.943,4.948,4.948,0,0,0,2.572.662,7.293,7.293,0,0,0,2.344-.412,10.143,10.143,0,0,0,2.431-1.237l-.63-.977a8.841,8.841,0,0,1-1.975.966,5.646,5.646,0,0,1-1.758.315,3.259,3.259,0,0,1-1.943-.564,3.484,3.484,0,0,1-1.2-1.6,6.485,6.485,0,0,1-.406-2.29h7.873q.044-.347.065-.586m-6.446-3.56a2.965,2.965,0,0,1,1.867-.586,2.614,2.614,0,0,1,1.672.5,2.67,2.67,0,0,1,.89,1.324,5.477,5.477,0,0,1,.237,1.671h-6.093a6.108,6.108,0,0,1,.3-1.3,3.452,3.452,0,0,1,1.129-1.606" transform="translate(-1299.728 -191.9)" fill="#4d674e"/>
        <path id="Pfad_23804" data-name="Pfad 23804" d="M277.348,197.779c-.119.048-.293.122-.431.181a13.754,13.754,0,0,1-4.074,1.189c-1.352,5.1-7.115,14.36-7.2,14.572,0,0-.573,5-5.288,10.4a42.589,42.589,0,0,0,17.222-26.4c-.076.02-.152.041-.229.059" transform="translate(-193.402 -146.875)" fill="#4d674e"/>
        <path id="Pfad_23805" data-name="Pfad 23805" d="M0,42.5A42.548,42.548,0,0,0,42.5,85q1.184,0,2.352-.066a7.854,7.854,0,0,1-1.224-1.806,9.889,9.889,0,0,1-.827-2.421c-.1,0-.2,0-.3,0A38.21,38.21,0,1,1,53.98,6.052s1.552-1.776,9.321-.585C63.312,5.468,50.065,0,42.5,0A42.548,42.548,0,0,0,0,42.5" transform="translate(0 0.001)" fill="#4d674e"/>
        <path id="Pfad_23806" data-name="Pfad 23806" d="M65.117,59.355c-3.076,2.924-5.152,2.7-6.93,3.8L46.23,65.247c-2.037,19.339,9.949,34.605,27.682,39.037a35.922,35.922,0,0,0,7.135-4.613c.91-.979,3.209-2.47,3.5-3.7l0-.045a11.482,11.482,0,0,0,5.232-.541c1.1-.425,2.992-.921,3.886-1.728a10.179,10.179,0,0,0,1.89-.081c.228-.027.571-.2.609.1.024.194-.247.4-.344.545a10.66,10.66,0,0,0-.63,1.287c-.449.9-.923,1.793-1.333,2.716a10.917,10.917,0,0,1-.555,1.341c-.349.567-.764,1.1-1.147,1.646s-.771,1.046-1.134,1.586a7.9,7.9,0,0,1-.71,1.141c-.871-.529-2.234-.5-3.088-1.053a6.427,6.427,0,0,0-3.246,4.563,10.083,10.083,0,0,0-.261,2.694,3.222,3.222,0,0,0,.333,1.335c.207.421.43.461.823.272a11.438,11.438,0,0,0,2.5-1.657,11.023,11.023,0,0,1,2.59-1.4,18.7,18.7,0,0,0,3.551-1.821,5.855,5.855,0,0,0,1.066-1.006c.364-.442.794-.841,1.18-1.27a8.688,8.688,0,0,0,1.365-2.233c.5-1.07,1.377-1.929,1.847-2.986q.8-1.8,1.453-3.7c.212-.622.5-1.182.66-1.812.175-.676.613-1.274.821-1.944s.42-1.317.56-1.989c.088-.422-1.04-2-1.271-2.4-1.019-1.765-1.86-1.941-3.814-1.827-1.53.091-3.033-.1-4.561-.133-1.047-.025-2.073.01-3.109-.008a7.674,7.674,0,0,0-.7-5,7.344,7.344,0,0,1-1.067-2.122c-.163-1.062.023-2.136-.072-3.2A16.259,16.259,0,0,0,86.6,70.838c1.226-2.1,1.047-2.993,1.591-3.474s1.332-1.819,2.082-2.605A29.671,29.671,0,0,1,92.886,62.1c1.349-1.1,4-2.726,5.738-1.5.078.293.152.588.245.873.216.646.612,1.243.859,1.873a8.775,8.775,0,0,0,2.608,1.432c.814.337,1.92,1.3,2.748,1.625l-.013.035A17.42,17.42,0,0,1,111,70.9a5.37,5.37,0,0,0,.25,2.667A7.129,7.129,0,0,0,114,75.254c1.3-.034,2.872-1.1,4.043-1.3a15.792,15.792,0,0,0,.8-3.241c.133-.5.285-1.012.405-1.53a14.02,14.02,0,0,1-.906-2.9c-1.4-3.811-3.618-7.249-5.271-10.951h-.006c-.158-.932-.344-1.862-.541-2.782-.431-2.014-2.852-3.18-2.852-5.295,0-.311.013-.625.042-.94.065-.722,2.035-6.22,2.538-5.956-1.376-.725-4.391,2.131-5.422,2.895a19.781,19.781,0,0,0-5.775-1.617,5.722,5.722,0,0,0-2.134-.782,23.71,23.71,0,0,0-4.711.36,72.491,72.491,0,0,1-9.232.145,20.278,20.278,0,0,0,2.628.762,27.193,27.193,0,0,1-4.134.1c-2.318-.071-3.991,1.46-6.056,2.28a20.425,20.425,0,0,0,2.839.111,12.1,12.1,0,0,0-3.865,1.14,17.859,17.859,0,0,1-5.671,1.811,12.046,12.046,0,0,0,2.63.514c-.2.134-.383.3-.589.444-.82.59-1.738,1.05-2.609,1.577a20.16,20.16,0,0,1-6.931,2.664,11,11,0,0,0,4.723.138,8.661,8.661,0,0,1-1.924,1.8,18.862,18.862,0,0,1-3.085,1.365c-.294.1-1.013.252-1.412.388a9.036,9.036,0,0,0,3.248.175,14.977,14.977,0,0,0,2.961-.433,7.5,7.5,0,0,0-2.608,3.156" transform="translate(-34.174 -29.895)" fill="#ded440"/>
      </g>
    </g>
    <g id="Gruppe_5765" data-name="Gruppe 5765" transform="translate(34 -17)">
      <g id="Gruppe_5668" data-name="Gruppe 5668" transform="translate(267 -118)">
        <g id="Gruppe_5667" data-name="Gruppe 5667" transform="translate(1081 214)">
          <path id="Pfad_23717" data-name="Pfad 23717" d="M7.907,1.79h3.584V13.369h5.984v3.072H7.907Z" transform="translate(27.348 6.248)" fill="#696969"/>
          <g id="Gruppe_5666" data-name="Gruppe 5666" transform="translate(0 0)">
            <g id="Gruppe_5665" data-name="Gruppe 5665" clip-path="url(#clip-path-2)">
              <path id="Pfad_23718" data-name="Pfad 23718" d="M19.455,13.466H14.847l-.887,3.1H10.239L15.261,1.79h3.8l5.022,14.773H20.364ZM17.142,5.159s-.33,1.613-.6,2.54L15.7,10.573h2.91L17.784,7.7c-.272-.927-.6-2.54-.6-2.54Z" transform="translate(35.389 6.184)" fill="#696969"/>
              <path id="Pfad_23719" data-name="Pfad 23719" d="M13.569,1.79h3.659l4.091,6.9a26.9,26.9,0,0,1,1.239,2.518h.04s-.165-1.591-.165-2.518V1.79h3.614V16.563H22.41L18.3,9.682A26.128,26.128,0,0,1,17.063,7.16h-.045s.165,1.591.165,2.522v6.881H13.569Z" transform="translate(46.899 6.184)" fill="#696969"/>
              <path id="Pfad_23720" data-name="Pfad 23720" d="M16.782,1.79h5.25c4.648,0,7.62,2.709,7.62,7.357s-2.972,7.415-7.62,7.415h-5.25Zm5.1,11.676c2.5,0,4.029-1.488,4.029-4.318,0-2.812-1.591-4.256-4.029-4.256H20.4v8.574Z" transform="translate(58.004 6.184)" fill="#696969"/>
              <path id="Pfad_23721" data-name="Pfad 23721" d="M29.19,15.545A6.265,6.265,0,0,1,24.957,17.1c-2.625,0-4.92-1.756-4.92-4.505,0-2.1,1.569-3.471,3.347-4.3a4.27,4.27,0,0,1-1.3-2.83A3.968,3.968,0,0,1,26.3,1.726a3.908,3.908,0,0,1,4.171,3.819A4.069,4.069,0,0,1,27.951,9.2l1.529,1.84A3.286,3.286,0,0,0,30.015,9.6h3.017a6.207,6.207,0,0,1-1.631,3.6l3.1,3.6H30.224Zm-4.051-4.938c-.722.334-1.716,1.056-1.716,1.943a1.841,1.841,0,0,0,1.943,1.693,3.358,3.358,0,0,0,1.965-1.052ZM27.6,5.34a1.2,1.2,0,0,0-2.4-.04c0,.807.579,1.279,1.034,1.858.722-.432,1.364-.931,1.364-1.818" transform="translate(69.254 5.963)" fill="#696969"/>
              <path id="Pfad_23722" data-name="Pfad 23722" d="M23.724,1.79h9.051v3.1H27.338v3.1h4.505v3.1H27.338v5.477H23.724Z" transform="translate(81.997 6.185)" fill="#696969"/>
              <path id="Pfad_23723" data-name="Pfad 23723" d="M33.63,1.734a7.475,7.475,0,0,1,7.727,7.545,7.727,7.727,0,1,1-15.455,0A7.475,7.475,0,0,1,33.63,1.734m0,11.965a4.169,4.169,0,0,0,3.988-4.421,4,4,0,1,0-7.977,0A4.169,4.169,0,0,0,33.63,13.7" transform="translate(89.529 5.991)" fill="#696969"/>
              <path id="Pfad_23724" data-name="Pfad 23724" d="M29.649,1.79H34.8a7.6,7.6,0,0,1,2.87.352,4.288,4.288,0,0,1,2.727,4.3,4.5,4.5,0,0,1-2.21,4.029v.04a9.188,9.188,0,0,1,.557.891l2.874,5.165H37.586l-2.625-4.978H33.268v4.978H29.649Zm5.187,6.693a1.691,1.691,0,0,0,1.881-1.818c0-1.114-.414-1.778-2.233-1.778H33.268v3.6Z" transform="translate(102.477 6.184)" fill="#696969"/>
              <path id="Pfad_23725" data-name="Pfad 23725" d="M34.344,12.148a6.114,6.114,0,0,0,3.534,1.529c.744,0,1.551-.29,1.551-1.176,0-1.756-6.653-1.693-6.653-6.239,0-2.727,2.291-4.528,5.227-4.528a6.69,6.69,0,0,1,4.75,1.676L41.224,6.364a5.643,5.643,0,0,0-3.266-1.3c-.74,0-1.569.33-1.569,1.154,0,1.863,6.653,1.529,6.653,6.2,0,2.46-1.881,4.59-5.2,4.59a7.64,7.64,0,0,1-5.4-2.108Z" transform="translate(112.127 5.991)" fill="#696969"/>
              <path id="Pfad_23726" data-name="Pfad 23726" d="M39.447,4.888H34.964V1.79h12.58v3.1H43.061V16.563H39.447Z" transform="translate(120.846 6.186)" fill="#696969"/>
              <path id="Pfad_23727" data-name="Pfad 23727" d="M0,30H30V0H0Zm17.019-5.717H5.236V5.713H9.764V20.388h7.255Zm-4.029-11.3h4.029v4.029H12.99Zm11.769,11.3H20.236V9.612H12.981v-3.9H24.759Z" transform="translate(0 -0.003)" fill="#696969"/>
            </g>
          </g>
        </g>
      </g>
      <text id="_" data-name="&amp;" transform="translate(1310.5 125)" fill="#696969" font-size="40" font-family="Helvetica"><tspan x="0" y="0">&amp;</tspan></text>
      <g id="Gruppe_5763" data-name="Gruppe 5763" transform="translate(1102.172 -284.038)">
        <g id="Gruppe_5762" data-name="Gruppe 5762" transform="translate(18.828 380.038)">
          <g id="Gruppe_5713" data-name="Gruppe 5713" transform="translate(0 0)" clip-path="url(#clip-path-3)">
            <path id="Pfad_23741" data-name="Pfad 23741" d="M253.229,6.871a1.291,1.291,0,0,0,.209.733,1.41,1.41,0,0,0,.454.454,1.69,1.69,0,0,0,.629.244,5.21,5.21,0,0,0,.733.07,2.221,2.221,0,0,0,1.4-.384,1.147,1.147,0,0,0,.454-.978,2.7,2.7,0,0,0-.07-.524,1.308,1.308,0,0,0-.244-.419,1.435,1.435,0,0,0-.454-.279q-.314-.1-.733-.21l-.559-.1a1.8,1.8,0,0,0-.384-.07,1.7,1.7,0,0,1-.244-.1c-.07-.035-.1-.1-.14-.14a.518.518,0,0,1-.035-.244.262.262,0,0,1,.035-.175.613.613,0,0,1,.14-.175,2.075,2.075,0,0,1,.279-.14,1.707,1.707,0,0,1,.454-.035,1.2,1.2,0,0,1,.7.175.993.993,0,0,1,.314.489l.873-.1a2.737,2.737,0,0,0-.175-.489,1.641,1.641,0,0,0-.314-.419,1.666,1.666,0,0,0-.559-.279,2.884,2.884,0,0,0-.838-.1,2.322,2.322,0,0,0-.733.1,1.853,1.853,0,0,0-.594.279,1.11,1.11,0,0,0-.384.419,1.025,1.025,0,0,0-.14.559,1.05,1.05,0,0,0,.14.629,1.129,1.129,0,0,0,.419.384,2.929,2.929,0,0,0,.663.244c.279.07.559.1.908.175a.736.736,0,0,1,.524.21.477.477,0,0,1,.14.384.5.5,0,0,1-.21.419,1.23,1.23,0,0,1-.7.14,1.31,1.31,0,0,1-.384-.035,1.623,1.623,0,0,1-.314-.1,1.515,1.515,0,0,1-.244-.21.59.59,0,0,1-.1-.349h-.908Zm-3.841-1.292a1.512,1.512,0,0,1,.314-.838,1,1,0,0,1,.8-.314.955.955,0,0,1,.8.314,1.3,1.3,0,0,1,.244.873h-2.165Zm2.165,1.327a.828.828,0,0,1-.314.524,1.2,1.2,0,0,1-.7.175,1.037,1.037,0,0,1-.873-.384,1.631,1.631,0,0,1-.314-.978h3.177V5.823a3.327,3.327,0,0,0-.1-.873,1.71,1.71,0,0,0-.349-.663,2.072,2.072,0,0,0-.629-.454,2.287,2.287,0,0,0-.873-.175,1.864,1.864,0,0,0-.873.175,1.506,1.506,0,0,0-.663.454,2.6,2.6,0,0,0-.454.733,2.919,2.919,0,0,0-.175,1.013,2.409,2.409,0,0,0,.559,1.711,1.987,1.987,0,0,0,1.606.594,2.072,2.072,0,0,0,1.327-.384,1.742,1.742,0,0,0,.594-1.048Zm-7.926-4.749V8.2h.943V5.579a1.751,1.751,0,0,1,.07-.419,1.255,1.255,0,0,1,.244-.349,1.041,1.041,0,0,1,.384-.244,1.115,1.115,0,0,1,.489-.1.822.822,0,0,1,.594.21,1.023,1.023,0,0,1,.209.733V8.163h.978V5.23c0-1.082-.489-1.641-1.466-1.641a1.9,1.9,0,0,0-.768.175,1.958,1.958,0,0,0-.663.559V2.157Zm-1.851,4.5a1.165,1.165,0,0,1-.279.663.956.956,0,0,1-.664.244.841.841,0,0,1-.524-.14,1.5,1.5,0,0,1-.349-.314,2.018,2.018,0,0,1-.175-.489,3.46,3.46,0,0,1-.07-.629,2.714,2.714,0,0,1,.07-.559,2.018,2.018,0,0,1,.175-.489,1.11,1.11,0,0,1,.349-.349.841.841,0,0,1,.524-.14c.314,0,.524.07.629.244a1.255,1.255,0,0,1,.244.629l.943-.14a2.615,2.615,0,0,0-.175-.559,1.464,1.464,0,0,0-.314-.489,1.314,1.314,0,0,0-.524-.314,2.552,2.552,0,0,0-.8-.14,2.473,2.473,0,0,0-.908.175,1.573,1.573,0,0,0-.663.489,2.511,2.511,0,0,0-.419.733,2.88,2.88,0,0,0-.14.978,2.677,2.677,0,0,0,.14.943,1.848,1.848,0,0,0,.384.733,1.506,1.506,0,0,0,.663.454,2.522,2.522,0,0,0,.943.175A1.743,1.743,0,0,0,242.754,6.7h-.978ZM236.783,8.2h.978V3.8h-.978Zm-.035-5.1h1.013V2.157h-1.013Zm-2.06,5.1h.978V2.157h-.978Zm-2.828-3.631V6.8a1.947,1.947,0,0,0,.279,1.117,1.192,1.192,0,0,0,1.013.384,2.411,2.411,0,0,0,.873-.14l-.14-.733c-.07.035-.175.035-.244.07h-.279a.557.557,0,0,1-.419-.14.683.683,0,0,1-.14-.489v-2.3h1.082V3.8h-1.048V2.611h-.943V3.8h-.7v.768ZM228.717,8.2h.978V4.566h1.082V3.8h-1.082V3.519a.691.691,0,0,1,.175-.489.691.691,0,0,1,.489-.175,2.7,2.7,0,0,1,.524.07l.14-.733a3.056,3.056,0,0,0-.838-.1,1.425,1.425,0,0,0-1.048.384,1.512,1.512,0,0,0-.384,1.082V3.8h-.7v.768h.7V8.2Zm-2.235,0h.908V5.439a5.206,5.206,0,0,0-.07-.733,1.4,1.4,0,0,0-.279-.559,1.329,1.329,0,0,0-.559-.384,2.182,2.182,0,0,0-.873-.14,2.28,2.28,0,0,0-1.292.314,1.358,1.358,0,0,0-.594.943l.873.1a.776.776,0,0,1,.279-.454,1.1,1.1,0,0,1,.663-.14,1.206,1.206,0,0,1,.629.175.81.81,0,0,1,.244.7v.175l-.663.035a5.73,5.73,0,0,0-.8.07,2.257,2.257,0,0,0-.733.21,1.305,1.305,0,0,0-.524.454,1.215,1.215,0,0,0-.21.733,1.63,1.63,0,0,0,.1.594.953.953,0,0,0,.314.419,1.881,1.881,0,0,0,.454.244,1.633,1.633,0,0,0,.594.07,1.7,1.7,0,0,0,.873-.21,1.656,1.656,0,0,0,.594-.489V8.2Zm-.035-2.06v.244a1.162,1.162,0,0,1-.314.873,1.28,1.28,0,0,1-.943.314.723.723,0,0,1-.524-.175.6.6,0,0,1-.175-.454.966.966,0,0,1,.035-.314.626.626,0,0,1,.175-.244,1.165,1.165,0,0,1,.419-.175c.174-.035.419-.07.7-.1ZM218.87,2.157V8.2h.943V5.579a1.752,1.752,0,0,1,.07-.419,1.254,1.254,0,0,1,.244-.349,1.04,1.04,0,0,1,.384-.244,1.115,1.115,0,0,1,.489-.1.821.821,0,0,1,.594.21,1.022,1.022,0,0,1,.21.733V8.163h.978V5.23c0-1.082-.489-1.641-1.467-1.641a1.9,1.9,0,0,0-.768.175,1.957,1.957,0,0,0-.663.559V2.157Zm-1.886,4.5a1.165,1.165,0,0,1-.279.663.956.956,0,0,1-.663.244.841.841,0,0,1-.524-.14,1.5,1.5,0,0,1-.349-.314,2.018,2.018,0,0,1-.175-.489,3.456,3.456,0,0,1-.07-.629,2.711,2.711,0,0,1,.07-.559,2.018,2.018,0,0,1,.175-.489,1.109,1.109,0,0,1,.349-.349.841.841,0,0,1,.524-.14c.314,0,.524.07.629.244a1.255,1.255,0,0,1,.244.629l.943-.14a2.615,2.615,0,0,0-.175-.559,1.465,1.465,0,0,0-.314-.489,1.315,1.315,0,0,0-.524-.314,2.552,2.552,0,0,0-.8-.14,2.473,2.473,0,0,0-.908.175,1.572,1.572,0,0,0-.663.489,2.511,2.511,0,0,0-.419.733,2.88,2.88,0,0,0-.14.978,2.676,2.676,0,0,0,.14.943,1.847,1.847,0,0,0,.384.733,1.505,1.505,0,0,0,.663.454,2.523,2.523,0,0,0,.943.175,1.743,1.743,0,0,0,1.92-1.676h-.978Zm-7.577.21a1.291,1.291,0,0,0,.209.733,1.41,1.41,0,0,0,.454.454,1.691,1.691,0,0,0,.629.244,5.211,5.211,0,0,0,.733.07,2.221,2.221,0,0,0,1.4-.384,1.147,1.147,0,0,0,.454-.978,2.7,2.7,0,0,0-.07-.524,1.309,1.309,0,0,0-.244-.419,1.435,1.435,0,0,0-.454-.279q-.314-.1-.733-.21l-.559-.1a1.8,1.8,0,0,0-.384-.07,1.7,1.7,0,0,1-.244-.1c-.07-.035-.1-.1-.14-.14a.517.517,0,0,1-.035-.244.262.262,0,0,1,.035-.175.613.613,0,0,1,.14-.175,2.074,2.074,0,0,1,.279-.14,1.707,1.707,0,0,1,.454-.035,1.2,1.2,0,0,1,.7.175.993.993,0,0,1,.314.489l.873-.1a2.739,2.739,0,0,0-.175-.489,1.641,1.641,0,0,0-.314-.419,1.666,1.666,0,0,0-.559-.279,2.884,2.884,0,0,0-.838-.1,2.321,2.321,0,0,0-.733.1,1.853,1.853,0,0,0-.594.279,1.11,1.11,0,0,0-.384.419,1.025,1.025,0,0,0-.14.559,1.05,1.05,0,0,0,.14.629,1.129,1.129,0,0,0,.419.384,2.929,2.929,0,0,0,.663.244c.279.07.559.1.908.175a.736.736,0,0,1,.524.21.477.477,0,0,1,.14.384.5.5,0,0,1-.21.419,1.23,1.23,0,0,1-.7.14,1.309,1.309,0,0,1-.384-.035,1.623,1.623,0,0,1-.314-.1,1.52,1.52,0,0,1-.244-.21.59.59,0,0,1-.1-.349h-.908Zm-2.549-2.3V6.8a1.947,1.947,0,0,0,.279,1.117,1.239,1.239,0,0,0,1.013.384,2.293,2.293,0,0,0,.873-.14l-.14-.733c-.07.035-.175.035-.244.07h-.279a.557.557,0,0,1-.419-.14.683.683,0,0,1-.14-.489v-2.3h1.083V3.8H207.8V2.611h-.943V3.8h-.7v.768ZM203.087,3.8V8.2h.943V5.614a1.484,1.484,0,0,1,.07-.384.628.628,0,0,1,.21-.314,1.254,1.254,0,0,1,.349-.244,1.014,1.014,0,0,1,.489-.1h.244a.443.443,0,0,1,.209.035l.1-.873a1.514,1.514,0,0,1-.175-.035h-.244a1.589,1.589,0,0,0-.7.175,2.625,2.625,0,0,0-.559.524V3.8Zm-2.1,4.4h.978V3.8h-.978Zm0-5.1H202V2.157h-1.013Zm-6.879.7L195.4,8.2h.943l.908-3.212.908,3.212h.943L200.4,3.8h-1.013l-.733,3.212-.908-3.178h-.873l-.943,3.178L195.2,3.8Zm-1.536,4.4h.943V2.157h-.943v2.13a2.027,2.027,0,0,0-.524-.454,1.725,1.725,0,0,0-.559-.175h-.349a1.408,1.408,0,0,0-.768.21,1.883,1.883,0,0,0-.559.489,2.379,2.379,0,0,0-.349.733,3.808,3.808,0,0,0-.1.908,3.9,3.9,0,0,0,.1.943,1.788,1.788,0,0,0,.349.733,1.657,1.657,0,0,0,.594.489,1.985,1.985,0,0,0,.838.175,1.94,1.94,0,0,0,.8-.175,2.338,2.338,0,0,0,.629-.559V8.2Zm-.035-2.06a1.6,1.6,0,0,1-.314,1.082,1.035,1.035,0,0,1-.838.349,1.752,1.752,0,0,1-.419-.07.886.886,0,0,1-.349-.279,1.6,1.6,0,0,1-.244-.489,2.38,2.38,0,0,1-.07-.733,1.993,1.993,0,0,1,.279-1.152,1.014,1.014,0,0,1,.838-.384,2.043,2.043,0,0,1,.454.07.8.8,0,0,1,.349.244,1.1,1.1,0,0,1,.244.454,1.962,1.962,0,0,1,.1.7v.21ZM184.51,3.8V8.2h.943V5.579a.93.93,0,0,1,.1-.419,1.254,1.254,0,0,1,.244-.349,1.04,1.04,0,0,1,.384-.244,1.075,1.075,0,0,1,.454-.1.821.821,0,0,1,.594.21,1.022,1.022,0,0,1,.21.733V8.163h.978V5.23c0-1.082-.489-1.641-1.467-1.641a2.072,2.072,0,0,0-.8.175,2.091,2.091,0,0,0-.663.594V3.8Zm-1.99,4.4h.908V5.439a5.213,5.213,0,0,0-.07-.733,1.4,1.4,0,0,0-.279-.559,1.33,1.33,0,0,0-.559-.384,2.182,2.182,0,0,0-.873-.14,2.28,2.28,0,0,0-1.292.314,1.484,1.484,0,0,0-.594.943l.873.1a.776.776,0,0,1,.279-.454,1.1,1.1,0,0,1,.663-.14,1.206,1.206,0,0,1,.629.175.81.81,0,0,1,.244.7v.175l-.663.035a5.732,5.732,0,0,0-.8.07,2.257,2.257,0,0,0-.733.21,1.306,1.306,0,0,0-.524.454,1.216,1.216,0,0,0-.21.733,1.631,1.631,0,0,0,.1.594.953.953,0,0,0,.314.419,1.881,1.881,0,0,0,.454.244,1.633,1.633,0,0,0,.594.07,1.7,1.7,0,0,0,.873-.21,1.656,1.656,0,0,0,.594-.489V8.2Zm0-2.06v.244a1.162,1.162,0,0,1-.314.873,1.28,1.28,0,0,1-.943.314.723.723,0,0,1-.524-.175.6.6,0,0,1-.175-.454.966.966,0,0,1,.035-.314.626.626,0,0,1,.175-.244,1.166,1.166,0,0,1,.419-.175c.175-.035.419-.07.7-.1Zm-7.507-3.981V8.2h3.911l.14-.908h-3V2.157Zm-6.774,4.714a1.291,1.291,0,0,0,.21.733,1.4,1.4,0,0,0,.454.454,1.691,1.691,0,0,0,.629.244,5.209,5.209,0,0,0,.733.07,2.221,2.221,0,0,0,1.4-.384,1.147,1.147,0,0,0,.454-.978,2.7,2.7,0,0,0-.07-.524,1.307,1.307,0,0,0-.244-.419,1.435,1.435,0,0,0-.454-.279q-.314-.1-.733-.21l-.559-.1a1.8,1.8,0,0,0-.384-.07,1.7,1.7,0,0,1-.244-.1c-.07-.035-.1-.1-.14-.14a.517.517,0,0,1-.035-.244.262.262,0,0,1,.035-.175.612.612,0,0,1,.14-.175,2.069,2.069,0,0,1,.279-.14,1.707,1.707,0,0,1,.454-.035,1.2,1.2,0,0,1,.7.175.994.994,0,0,1,.314.489l.873-.1a2.736,2.736,0,0,0-.175-.489,1.641,1.641,0,0,0-.314-.419A1.665,1.665,0,0,0,171,3.763a2.884,2.884,0,0,0-.838-.1,2.321,2.321,0,0,0-.733.1,1.853,1.853,0,0,0-.594.279,1.11,1.11,0,0,0-.384.419,1.024,1.024,0,0,0-.14.559,1.049,1.049,0,0,0,.14.629,1.128,1.128,0,0,0,.419.384,2.93,2.93,0,0,0,.663.244c.279.07.559.1.908.175a.736.736,0,0,1,.524.21.477.477,0,0,1,.14.384.5.5,0,0,1-.209.419,1.23,1.23,0,0,1-.7.14,1.309,1.309,0,0,1-.384-.035,1.624,1.624,0,0,1-.314-.1,1.52,1.52,0,0,1-.244-.21.59.59,0,0,1-.1-.349h-.908Zm-3.806-1.292a1.512,1.512,0,0,1,.314-.838,1,1,0,0,1,.8-.314.956.956,0,0,1,.8.314,1.3,1.3,0,0,1,.244.873h-2.165ZM166.6,6.906a.828.828,0,0,1-.314.524,1.2,1.2,0,0,1-.7.175,1.037,1.037,0,0,1-.873-.384,1.631,1.631,0,0,1-.314-.978h3.178V5.823a3.324,3.324,0,0,0-.1-.873,1.709,1.709,0,0,0-.349-.663,2.072,2.072,0,0,0-.628-.454,2.288,2.288,0,0,0-.873-.175,1.864,1.864,0,0,0-.873.175,1.506,1.506,0,0,0-.663.454,2.6,2.6,0,0,0-.454.733,2.918,2.918,0,0,0-.175,1.013,2.409,2.409,0,0,0,.559,1.711,1.987,1.987,0,0,0,1.606.594,2.072,2.072,0,0,0,1.327-.384,1.742,1.742,0,0,0,.594-1.048Zm-7.926-4.749V8.2h.943V5.579a1.752,1.752,0,0,1,.07-.419,1.254,1.254,0,0,1,.244-.349,1.04,1.04,0,0,1,.384-.244,1.115,1.115,0,0,1,.489-.1.821.821,0,0,1,.594.21,1.022,1.022,0,0,1,.209.733V8.163h.978V5.23c0-1.082-.489-1.641-1.467-1.641a1.9,1.9,0,0,0-.768.175,1.958,1.958,0,0,0-.663.559V2.157Zm-1.886,4.5a1.165,1.165,0,0,1-.279.663.956.956,0,0,1-.663.244.842.842,0,0,1-.524-.14,1.5,1.5,0,0,1-.349-.314,2.018,2.018,0,0,1-.174-.489,3.456,3.456,0,0,1-.07-.629,2.711,2.711,0,0,1,.07-.559,2.018,2.018,0,0,1,.174-.489,1.111,1.111,0,0,1,.349-.349.842.842,0,0,1,.524-.14c.314,0,.524.07.629.244a1.255,1.255,0,0,1,.244.629l.943-.14a2.615,2.615,0,0,0-.175-.559,1.464,1.464,0,0,0-.314-.489,1.315,1.315,0,0,0-.524-.314,2.551,2.551,0,0,0-.8-.14,2.473,2.473,0,0,0-.908.175,1.572,1.572,0,0,0-.663.489,2.512,2.512,0,0,0-.419.733,2.879,2.879,0,0,0-.14.978,2.676,2.676,0,0,0,.14.943,1.848,1.848,0,0,0,.384.733,1.506,1.506,0,0,0,.663.454,2.522,2.522,0,0,0,.943.175,1.743,1.743,0,0,0,1.92-1.676h-.978Zm-7.577.21a1.291,1.291,0,0,0,.21.733,1.4,1.4,0,0,0,.454.454,1.69,1.69,0,0,0,.629.244,5.209,5.209,0,0,0,.733.07,2.221,2.221,0,0,0,1.4-.384,1.147,1.147,0,0,0,.454-.978,2.7,2.7,0,0,0-.07-.524,1.309,1.309,0,0,0-.244-.419,1.436,1.436,0,0,0-.454-.279q-.314-.1-.733-.21l-.559-.1a1.8,1.8,0,0,0-.384-.07,1.7,1.7,0,0,1-.244-.1c-.07-.035-.1-.1-.14-.14a.518.518,0,0,1-.035-.244.262.262,0,0,1,.035-.175.612.612,0,0,1,.14-.175,2.072,2.072,0,0,1,.279-.14,1.707,1.707,0,0,1,.454-.035,1.2,1.2,0,0,1,.7.175.994.994,0,0,1,.314.489l.873-.1a2.741,2.741,0,0,0-.175-.489,1.641,1.641,0,0,0-.314-.419,1.666,1.666,0,0,0-.559-.279,2.725,2.725,0,0,0-.838-.1,2.321,2.321,0,0,0-.733.1,1.853,1.853,0,0,0-.594.279,1.11,1.11,0,0,0-.384.419,1.025,1.025,0,0,0-.14.559,1.05,1.05,0,0,0,.14.629,1.128,1.128,0,0,0,.419.384,2.93,2.93,0,0,0,.663.244c.279.07.559.1.908.175a.736.736,0,0,1,.524.21.477.477,0,0,1,.14.384.5.5,0,0,1-.209.419,1.23,1.23,0,0,1-.7.14,1.309,1.309,0,0,1-.384-.035,1.623,1.623,0,0,1-.314-.1,1.517,1.517,0,0,1-.244-.21.589.589,0,0,1-.1-.349h-.908ZM147.392,8.2h.978V3.8h-.978Zm-.035-5.1h1.013V2.157h-1.013Zm-3.317.7V8.2h.943V5.614a1.485,1.485,0,0,1,.07-.384.628.628,0,0,1,.21-.314,1.254,1.254,0,0,1,.349-.244,1.014,1.014,0,0,1,.489-.1h.244a.443.443,0,0,1,.21.035l.1-.873a1.511,1.511,0,0,1-.175-.035h-.244a1.589,1.589,0,0,0-.7.175,2.625,2.625,0,0,0-.559.524V3.8Zm-4.085,1.781a1.512,1.512,0,0,1,.314-.838,1,1,0,0,1,.8-.314.956.956,0,0,1,.8.314,1.3,1.3,0,0,1,.244.873h-2.165Zm2.165,1.327a.828.828,0,0,1-.314.524,1.2,1.2,0,0,1-.7.175,1.037,1.037,0,0,1-.873-.384,1.631,1.631,0,0,1-.314-.978H143.1V5.823a3.323,3.323,0,0,0-.1-.873,1.708,1.708,0,0,0-.349-.663,2.073,2.073,0,0,0-.629-.454,2.288,2.288,0,0,0-.873-.175,1.864,1.864,0,0,0-.873.175,1.506,1.506,0,0,0-.663.454,2.6,2.6,0,0,0-.454.733,2.96,2.96,0,0,0-.14,1.013,2.409,2.409,0,0,0,.559,1.711,1.987,1.987,0,0,0,1.606.594,2.072,2.072,0,0,0,1.327-.384,1.742,1.742,0,0,0,.594-1.048Zm-7.542,2.828c.14.035.279.07.384.1a1.566,1.566,0,0,0,.419.035,1.33,1.33,0,0,0,.559-.1,1.642,1.642,0,0,0,.419-.314c.1-.14.21-.314.314-.489a7.246,7.246,0,0,0,.279-.7L138.7,3.8H137.65l-1.117,3.178L135.31,3.8h-1.117l1.851,4.26-.175.419a.921.921,0,0,1-.279.454.732.732,0,0,1-.384.14,2.061,2.061,0,0,1-.489-.07ZM132.8,8.2h.908V5.439a5.208,5.208,0,0,0-.07-.733,1.4,1.4,0,0,0-.279-.559,1.329,1.329,0,0,0-.559-.384,2.182,2.182,0,0,0-.873-.14,2.28,2.28,0,0,0-1.292.314,1.483,1.483,0,0,0-.594.943l.873.1a.776.776,0,0,1,.279-.454,1.1,1.1,0,0,1,.663-.14,1.206,1.206,0,0,1,.629.175.81.81,0,0,1,.244.7v.175l-.663.035a5.731,5.731,0,0,0-.8.07,2.257,2.257,0,0,0-.733.21,1.3,1.3,0,0,0-.524.454,1.215,1.215,0,0,0-.21.733,1.631,1.631,0,0,0,.1.594.953.953,0,0,0,.314.419,1.882,1.882,0,0,0,.454.244,1.634,1.634,0,0,0,.594.07,1.7,1.7,0,0,0,.873-.21,1.656,1.656,0,0,0,.594-.489V8.2Zm0-2.06v.244a1.162,1.162,0,0,1-.314.873,1.28,1.28,0,0,1-.943.314.723.723,0,0,1-.524-.175.6.6,0,0,1-.175-.454.966.966,0,0,1,.035-.314.626.626,0,0,1,.175-.244,1.166,1.166,0,0,1,.419-.175c.175-.035.419-.07.7-.1Zm-7.019,1.257V5.474H127.1a1.285,1.285,0,0,1,.908.244.9.9,0,0,1,.244.7,1.255,1.255,0,0,1-.07.384.825.825,0,0,1-.21.314,1.894,1.894,0,0,1-.384.21,2.769,2.769,0,0,1-.594.07Zm0-2.759V2.96h1.082a1.943,1.943,0,0,1,.943.175.767.767,0,0,1,.279.629.747.747,0,0,1-.244.629A1.343,1.343,0,0,1,127,4.6h-1.222ZM124.8,8.2h2.235a3.044,3.044,0,0,0,1.048-.14,1.911,1.911,0,0,0,.7-.384,1.463,1.463,0,0,0,.384-.559,2.252,2.252,0,0,0,.1-.7,1.565,1.565,0,0,0-.175-.8,1.42,1.42,0,0,0-.314-.349,1.634,1.634,0,0,0-.489-.279,1.211,1.211,0,0,0,.629-.524,1.589,1.589,0,0,0,.175-.7,1.978,1.978,0,0,0-.1-.629,1.259,1.259,0,0,0-.349-.524,2.352,2.352,0,0,0-.663-.349,4.3,4.3,0,0,0-1.082-.14h-2.1Z" transform="translate(-81.222 -1.358)" fill="#696969"/>
            <path id="Pfad_23742" data-name="Pfad 23742" d="M25.56,14.473,22.906,2.462H15.853L11.837,20.9,8.171,2.287H0L7.647,30.815h7.577l4.051-18.262,2.619,11.523Z" transform="translate(0 -1.489)" fill="#696969"/>
            <path id="Pfad_23743" data-name="Pfad 23743" d="M71.494,30.127a4.62,4.62,0,0,0,3.492.07c1.676-.768,2.584-4.19,2.584-4.19a14.782,14.782,0,0,0-3.841,1.013c-1.676.768-2.235,3.108-2.235,3.108m-1.886,4.714a4.62,4.62,0,0,0,3.492.07c1.676-.768,2.584-4.19,2.584-4.19a14.782,14.782,0,0,0-3.841,1.013c-1.676.768-2.235,3.108-2.235,3.108m-1.851.733a14.005,14.005,0,0,0-2.1-3.387s-1.711,3.073-1.048,4.784a4.61,4.61,0,0,0,2.549,2.374s1.257-2.06.594-3.771m-.07,3.981a4.62,4.62,0,0,0,3.492.07c1.676-.768,2.584-4.19,2.584-4.19a14.783,14.783,0,0,0-3.841,1.013c-1.676.768-2.235,3.108-2.235,3.108m5.727-14.107a4.62,4.62,0,0,0,3.492.07c1.676-.768,2.584-4.19,2.584-4.19a14.783,14.783,0,0,0-3.841,1.013c-1.676.733-2.235,3.108-2.235,3.108m1.117-3.527a3.952,3.952,0,0,0,2.793-2.1c.7-1.746-.1-4.539-.1-4.539s-2.514,1.467-3.247,3.212a3.857,3.857,0,0,0,.559,3.422M69.12,34.632s1.222-2.06.559-3.771a14.005,14.005,0,0,0-2.1-3.387s-1.711,3.073-1.048,4.784a4.629,4.629,0,0,0,2.584,2.374m1.886-4.714s1.222-2.06.559-3.771a14.005,14.005,0,0,0-2.1-3.387s-1.711,3.073-1.048,4.784a4.737,4.737,0,0,0,2.584,2.374m-.663-7.053c-.663-1.711,1.048-4.784,1.048-4.784a15.309,15.309,0,0,1,2.1,3.387c.663,1.711-.559,3.771-.559,3.771a4.629,4.629,0,0,1-2.584-2.374" transform="translate(-41.953 -9.949)" fill="#696969"/>
            <path id="Pfad_23744" data-name="Pfad 23744" d="M91.865,21.921a3.952,3.952,0,0,0,2.793-2.1c.733-1.746-.1-4.539-.1-4.539S92.04,16.754,91.306,18.5a3.857,3.857,0,0,0,.559,3.422" transform="translate(-59.286 -9.949)" fill="#696969"/>
            <line id="Linie_6" data-name="Linie 6" x1="2.13" y2="5.342" transform="translate(30.972 2.754)" fill="none" stroke="#696969" stroke-linecap="round" stroke-width="0.974"/>
            <line id="Linie_7" data-name="Linie 7" x1="1.606" y2="4.016" transform="translate(35.721 0.17)" fill="none" stroke="#696969" stroke-linecap="round" stroke-width="0.974"/>
            <line id="Linie_8" data-name="Linie 8" x1="2.13" y2="5.342" transform="translate(36.455 4.954)" fill="none" stroke="#696969" stroke-linecap="round" stroke-width="0.974"/>
            <path id="Pfad_23745" data-name="Pfad 23745" d="M94.707,19.926a2.71,2.71,0,0,0,1.921-1.432,5.86,5.86,0,0,0-.07-3.108,6.105,6.105,0,0,0-2.235,2.2,2.6,2.6,0,0,0,.384,2.34" transform="translate(-61.29 -10.014)" fill="#696969"/>
            <path id="Pfad_23746" data-name="Pfad 23746" d="M83.564,30.445a4.61,4.61,0,0,1-2.549-2.374c-.663-1.711,1.048-4.784,1.048-4.784s-1.048,1.851.8,4.155c1.606,1.99.7,3,.7,3" transform="translate(-52.627 -15.156)" fill="#696969"/>
            <path id="Pfad_23747" data-name="Pfad 23747" d="M90.1,36.607a4.62,4.62,0,0,0,3.492.07c1.676-.768,2.584-4.19,2.584-4.19s-.489,1.886-3.387,2.27c-2.584.349-2.689,1.851-2.689,1.851" transform="translate(-58.639 -21.143)" fill="#696969"/>
            <line id="Linie_9" data-name="Linie 9" x1="1.606" y2="3.981" transform="translate(33.626 1.427)" fill="none" stroke="#696969" stroke-linecap="round" stroke-width="0.974"/>
            <line id="Linie_10" data-name="Linie 10" x1="1.606" y2="4.016" transform="translate(36.385 2.509)" fill="none" stroke="#696969" stroke-linecap="round" stroke-width="0.974"/>
            <path id="Pfad_23748" data-name="Pfad 23748" d="M78.164,43.845a4.61,4.61,0,0,1-2.549-2.374c-.663-1.711,1.048-4.784,1.048-4.784s-1.048,1.851.8,4.155c1.606,2.025.7,3,.7,3" transform="translate(-49.112 -23.877)" fill="#696969"/>
            <path id="Pfad_23749" data-name="Pfad 23749" d="M72.764,57.345a4.61,4.61,0,0,1-2.549-2.374c-.663-1.711,1.048-4.784,1.048-4.784s-1.048,1.851.8,4.155c1.571,1.99.7,3,.7,3" transform="translate(-45.598 -32.663)" fill="#696969"/>
            <path id="Pfad_23750" data-name="Pfad 23750" d="M67.264,70.845a4.61,4.61,0,0,1-2.549-2.374c-.663-1.711,1.048-4.784,1.048-4.784s-1.048,1.851.8,4.155c1.606,1.99.7,3,.7,3" transform="translate(-42.018 -41.449)" fill="#696969"/>
            <path id="Pfad_23751" data-name="Pfad 23751" d="M84.6,50.107a4.62,4.62,0,0,0,3.492.07c1.676-.768,2.584-4.19,2.584-4.19s-.489,1.886-3.387,2.27c-2.549.349-2.689,1.851-2.689,1.851" transform="translate(-55.059 -29.929)" fill="#696969"/>
            <path id="Pfad_23752" data-name="Pfad 23752" d="M79.2,63.607a4.62,4.62,0,0,0,3.492.07c1.676-.768,2.584-4.19,2.584-4.19s-.489,1.886-3.387,2.27c-2.584.349-2.689,1.851-2.689,1.851" transform="translate(-51.545 -38.715)" fill="#696969"/>
            <path id="Pfad_23753" data-name="Pfad 23753" d="M73.7,77.107a4.62,4.62,0,0,0,3.492.07c1.676-.768,2.584-4.19,2.584-4.19s-.489,1.886-3.387,2.27c-2.549.349-2.689,1.851-2.689,1.851" transform="translate(-47.965 -47.501)" fill="#696969"/>
            <path id="Pfad_23754" data-name="Pfad 23754" d="M219.219,41.459a2.446,2.446,0,0,1-.733,1.886,2.729,2.729,0,0,1-1.955.7c-1.082,0-1.641-.454-1.641-1.327a1.258,1.258,0,0,1,.663-1.187,4.543,4.543,0,0,1,2.06-.489l1.606-.07Zm4.819,5.622V38.072a5.851,5.851,0,0,0-1.571-4.47,6.9,6.9,0,0,0-4.854-1.467c-3.946,0-6.181,1.536-6.669,4.574l4.5.349c.175-.943.8-1.432,1.955-1.432a1.656,1.656,0,0,1,1.851,1.886v.594l-2.165.1a10.024,10.024,0,0,0-5.238,1.362,3.965,3.965,0,0,0-1.711,3.492,4.034,4.034,0,0,0,1.292,3.178,5.216,5.216,0,0,0,3.562,1.187,5.763,5.763,0,0,0,2.374-.454,6.473,6.473,0,0,0,2.025-1.5v1.571h4.644ZM208.045,27.387h-4.993V47.081h4.993ZM190.831,39.608a4.449,4.449,0,0,1,.594-2.514,2.085,2.085,0,0,1,1.816-.908q2.409,0,2.409,3.666c0,2.479-.8,3.7-2.444,3.7a2.011,2.011,0,0,1-1.781-.838,4.864,4.864,0,0,1-.594-2.689Zm-.14,7.473v-1.5a4.483,4.483,0,0,0,3.946,1.921,5.775,5.775,0,0,0,3.212-.908,5.865,5.865,0,0,0,2.1-2.689,11.208,11.208,0,0,0,.733-4.26,8.859,8.859,0,0,0-1.5-5.517,5.132,5.132,0,0,0-4.26-1.955,4.974,4.974,0,0,0-4.085,1.886V27.422h-4.993V47.116h4.854Zm-7.542,0V37.409a5.659,5.659,0,0,0-1.187-3.876,4.4,4.4,0,0,0-3.492-1.362,5.285,5.285,0,0,0-4.4,2.165V32.625h-4.854V47.081h4.993V38.7a2.222,2.222,0,0,1,2.3-2.409,1.587,1.587,0,0,1,1.257.454,2.377,2.377,0,0,1,.384,1.467v8.869h4.993m-25.77-8.9a2.407,2.407,0,0,1,2.584-2.479,2.254,2.254,0,0,1,1.711.594,2.757,2.757,0,0,1,.629,1.886h-4.923m4.749,4.225a2.076,2.076,0,0,1-2.3,1.5,2.212,2.212,0,0,1-1.781-.7,3.836,3.836,0,0,1-.7-2.235h9.533V39.4a7.643,7.643,0,0,0-1.816-5.377,6.687,6.687,0,0,0-5.1-1.921,7.024,7.024,0,0,0-5.412,2.1,8.23,8.23,0,0,0-1.955,5.831,7.638,7.638,0,0,0,1.886,5.552,7.375,7.375,0,0,0,5.447,1.886,7.632,7.632,0,0,0,4.714-1.292,5.655,5.655,0,0,0,2.165-3.806h-4.679ZM150.36,47.081V37.409a5.659,5.659,0,0,0-1.187-3.876,4.4,4.4,0,0,0-3.492-1.362,5.248,5.248,0,0,0-4.26,1.99V27.387h-4.993V47.081h4.993V38.7a2.222,2.222,0,0,1,2.3-2.409,1.588,1.588,0,0,1,1.257.454,2.377,2.377,0,0,1,.384,1.467v8.869h4.993m-20.741-5.587a2.472,2.472,0,0,1-.594,1.536,1.842,1.842,0,0,1-1.362.524c-1.467,0-2.2-1.257-2.2-3.736,0-2.514.733-3.736,2.2-3.736a1.607,1.607,0,0,1,1.222.454A3.193,3.193,0,0,1,129.514,38l4.784-.454a5.843,5.843,0,0,0-1.99-3.981,6.752,6.752,0,0,0-4.5-1.4,7.13,7.13,0,0,0-5.412,2.06,8.049,8.049,0,0,0-1.955,5.762,7.784,7.784,0,0,0,1.886,5.587,7.019,7.019,0,0,0,5.377,1.955A7.09,7.09,0,0,0,132.482,46a6.635,6.635,0,0,0,2.025-4.47h-4.889Zm-18.646-5.377c1.641,0,2.444,1.257,2.444,3.736,0,2.514-.8,3.736-2.444,3.736s-2.444-1.257-2.444-3.736c0-2.514.8-3.736,2.444-3.736m5.517,9.358a7.793,7.793,0,0,0,1.99-5.692,7.75,7.75,0,0,0-1.955-5.622,8.527,8.527,0,0,0-11.034,0,7.793,7.793,0,0,0-1.99,5.692,7.807,7.807,0,0,0,1.955,5.622,7.336,7.336,0,0,0,5.482,1.99,7.236,7.236,0,0,0,5.552-1.99" transform="translate(-67.36 -17.824)" fill="#696969"/>
            <path id="Pfad_23755" data-name="Pfad 23755" d="M470.7,39.169h3.143V35.258H470.7V31.487H465.71v3.806H460.3V31.487H455.3v3.806H453v3.876h2.3v5.377a5.9,5.9,0,0,0,1.257,4.19,5.447,5.447,0,0,0,3.981,1.292,11.464,11.464,0,0,0,3.422-.524l-.628-3.631a6.068,6.068,0,0,1-1.362.175,1.743,1.743,0,0,1-1.257-.384,1.9,1.9,0,0,1-.384-1.292v-5.2h5.412v5.377A5.9,5.9,0,0,0,467,48.737a5.448,5.448,0,0,0,3.981,1.292,11.465,11.465,0,0,0,3.422-.524l-.629-3.631a6.067,6.067,0,0,1-1.362.175,1.742,1.742,0,0,1-1.257-.384,1.9,1.9,0,0,1-.384-1.292v-5.2Z" transform="translate(-294.821 -20.492)" fill="#696969"/>
          </g>
        </g>
      </g>
    </g>
  </g>
</svg>